<svg width="24" height="24" viewBox="0 0 24 24" fill="none" xmlns="http://www.w3.org/2000/svg">
<g clip-path="url(#clip0_2405_170)">
<path d="M17.1457 14.2844C15.593 14.2844 14.2512 13.9885 13.1203 13.3967C11.9894 12.8049 11.1164 11.9641 10.5012 10.8742C9.88593 9.7785 9.57831 8.47772 9.57831 6.97186C9.57831 6.32733 9.62518 5.73553 9.71893 5.19647C9.81854 4.65741 9.95038 4.22968 10.1144 3.91327C10.1906 3.77264 10.2404 3.65546 10.2639 3.56171C10.2932 3.4621 10.3078 3.35956 10.3078 3.25409C10.3078 3.06659 10.2375 2.89374 10.0969 2.73553C9.95624 2.57733 9.77167 2.49823 9.54315 2.49823C9.49042 2.49823 9.41425 2.50995 9.31464 2.53339C9.22089 2.55096 9.1037 2.58905 8.96307 2.64764C7.86737 3.09296 6.89764 3.74628 6.05389 4.6076C5.216 5.46307 4.55975 6.45624 4.08514 7.5871C3.61053 8.7121 3.37323 9.89276 3.37323 11.1291C3.37323 12.4709 3.60175 13.7043 4.05878 14.8293C4.51581 15.9543 5.15741 16.9328 5.98358 17.7648C6.81561 18.591 7.79413 19.2326 8.91913 19.6896C10.0441 20.1525 11.2775 20.384 12.6193 20.384C13.8849 20.384 15.0656 20.1672 16.1613 19.7336C17.257 19.3058 18.218 18.6906 19.0441 17.8879C19.8762 17.091 20.5324 16.1418 21.0129 15.0402C21.0715 14.9055 21.1096 14.7824 21.1271 14.6711C21.1506 14.5598 21.1623 14.4719 21.1623 14.4074C21.1623 14.1848 21.0891 14.009 20.9426 13.8801C20.8019 13.7512 20.6437 13.6867 20.468 13.6867C20.3801 13.6867 20.2892 13.6955 20.1955 13.7131C20.1076 13.7307 19.9992 13.7658 19.8703 13.8185C19.6476 13.9182 19.3869 14.0031 19.0881 14.0734C18.7951 14.1379 18.4816 14.1906 18.1476 14.2316C17.8195 14.2668 17.4855 14.2844 17.1457 14.2844ZM5.06952 11.0764C5.06952 10.2502 5.20135 9.44159 5.46503 8.65057C5.73456 7.85956 6.11542 7.133 6.6076 6.47089C7.09979 5.80878 7.68573 5.24921 8.36542 4.79218C8.24823 5.1496 8.15741 5.52753 8.09296 5.92596C8.03436 6.31854 8.00507 6.73163 8.00507 7.16522C8.00507 8.96991 8.35663 10.5197 9.05975 11.8146C9.76874 13.1096 10.7824 14.1057 12.1008 14.8029C13.425 15.4943 15.0099 15.84 16.8557 15.84C17.2365 15.84 17.591 15.8166 17.9191 15.7697C18.2531 15.7228 18.5724 15.6437 18.8771 15.5324C18.4494 16.1887 17.9133 16.7541 17.2687 17.2287C16.6301 17.7033 15.9152 18.0666 15.1242 18.3185C14.3391 18.5705 13.5187 18.6965 12.6633 18.6965C11.5676 18.6965 10.5568 18.506 9.63104 18.1252C8.70526 17.7502 7.8996 17.2228 7.21405 16.5432C6.53436 15.8576 6.00702 15.0519 5.63202 14.1262C5.25702 13.2004 5.06952 12.1838 5.06952 11.0764Z" fill="#5142FC"/>
</g>
<rect x="1" y="1" width="22" height="22" rx="4" stroke="#5142FC" stroke-width="2"/>
<defs>
<clipPath id="clip0_2405_170">
<rect width="24" height="24" rx="5" fill="white"/>
</clipPath>
</defs>
</svg>
