<svg width="991" height="378" viewBox="0 0 991 378" fill="none" xmlns="http://www.w3.org/2000/svg">
<rect width="378" height="378" rx="90.3529" fill="#5142FC"/>
<path d="M108.324 88.1543H188.868V128.426H229.14V88.1543H269.412V128.426H229.14V208.969H269.412V249.241H229.14V289.512H148.596V249.241H108.324V88.1543Z" fill="white"/>
<path d="M148.598 128.424H188.87V208.967H229.141V249.239H148.598V128.424Z" fill="#5142FC"/>
<path d="M904.138 201.006V207.094C904.138 216.738 901.559 226.125 896.256 233.062C890.991 239.949 882.972 244.52 871.801 244.52C866.367 244.52 861.914 243.124 858.842 240.485C855.805 237.876 853.937 233.898 853.937 228.326C853.937 222.998 855.362 219.262 858.183 216.49C861.063 213.661 865.575 211.659 872.12 210.225L904.138 201.006ZM904.138 201.006C899.639 203.816 894.691 205.266 888.363 206.684L888.354 206.686L872.122 210.224L904.138 201.006ZM429.5 256.428V257.928H431H515.3H516.8V256.428V242.481V240.981H515.3H448.734V118V116.5H447.234H431H429.5V118V256.428ZM524.62 150.847H523.12V152.347V218.751C523.12 232.544 525.883 243.218 532.034 250.452C538.228 257.737 547.617 261.259 560.217 261.259C570.023 261.259 578.006 258.345 584.294 252.991C588.772 249.178 592.336 244.175 595.097 238.222V256.428V257.928H596.597H612.245H613.745V256.428V152.347V150.847H612.245H596.597H595.097V152.347V192.106C595.097 209.254 592.228 222.425 586.994 231.256C581.812 240.001 574.31 244.52 564.716 244.52C557.447 244.52 551.833 243.038 547.995 239.071C544.139 235.084 541.767 228.273 541.767 216.877V152.347V150.847H540.267H524.62ZM718.653 257.928H720.153V256.428V216.669C720.153 198.847 722.547 185.736 727.392 177.125C729.8 172.846 732.8 169.701 736.402 167.618C740.005 165.534 744.296 164.463 749.36 164.463C756.255 164.463 761.323 166.216 764.722 170.207C768.17 174.256 770.158 180.9 770.158 191.273V256.428V257.928H771.658H787.305H788.805V256.428V189.4C788.805 175.915 786.089 165.418 780.305 158.272C774.472 151.066 765.723 147.516 754.25 147.516C744.271 147.516 736.239 150.314 729.966 155.54C724.936 159.73 721.116 165.415 718.309 172.287C716.538 165.084 713.418 159.338 708.828 155.189C703.123 150.033 695.342 147.516 685.598 147.516C676 147.516 668.262 150.267 662.164 155.387C657.839 159.019 654.398 163.794 651.696 169.498V152.347V150.847H650.196H634.548H633.048V152.347V256.428V257.928H634.548H650.196H651.696V256.428V216.669C651.696 198.848 654.09 185.734 658.912 177.122C661.309 172.842 664.292 169.698 667.866 167.616C671.441 165.533 675.695 164.463 680.708 164.463C687.706 164.463 692.822 166.219 696.243 170.21C699.713 174.258 701.701 180.899 701.701 191.273V256.428V257.928H703.201H718.653ZM804.785 256.428V257.928H806.285H821.933H823.433V256.428V152.347V150.847H821.933H806.285H804.785V152.347V256.428ZM802.438 135.278V136.778H803.938H824.084H825.584V135.278V118V116.5H824.084H803.938H802.438V118V135.278ZM904.268 239.644C904.455 244.98 904.851 250.5 905.516 256.591L905.662 257.928H907.007H921.09H922.709L922.585 256.313C921.805 246.135 921.416 238.058 921.416 230.616V180.657C921.416 170.962 918.318 162.551 911.597 156.585C904.901 150.642 894.813 147.308 881.189 147.308C867.441 147.308 856.587 150.914 849.075 157.517C841.546 164.136 837.549 173.614 837.246 184.989L837.205 186.528H838.746H854.393H855.789L855.889 185.137C856.362 178.597 858.331 173.231 862.272 169.489C866.208 165.752 872.337 163.422 881.58 163.422C890.996 163.422 896.559 165.423 899.777 168.408C902.964 171.365 904.138 175.557 904.138 180.657C904.138 184.308 903.165 186.529 901.256 188.116C899.228 189.802 895.948 190.948 890.899 191.879C890.897 191.879 890.895 191.879 890.893 191.88L866.065 196.249C866.064 196.249 866.064 196.249 866.064 196.249C855.219 198.155 847.427 201.847 842.356 207.41C837.265 212.995 835.094 220.268 835.094 228.951C835.094 239.201 838.605 247.181 844.694 252.581C850.757 257.958 859.214 260.634 868.867 260.634C880.561 260.634 889.182 256.868 895.36 251.412C899.28 247.95 902.182 243.838 904.268 239.644Z" fill="black" stroke="black" stroke-width="3"/>
</svg>
