<svg width="210" height="95" viewBox="0 0 210 95" fill="none" xmlns="http://www.w3.org/2000/svg">
<path d="M89 69.6777V35.5H93.0081V66.2342H109.813V69.6777H89Z" fill="#FCFDFE"/>
<path d="M120.903 70.5C114.818 70.5 112.114 67.1079 112.114 60.3752V43.9802H115.977V59.9126C115.977 65.6175 118.344 67.1079 122.014 67.1079C127.036 67.1079 129.885 62.3282 129.885 53.7966V43.9802H133.748V69.6777H129.885V63.2019C128.436 67.7247 125.587 70.5 120.903 70.5Z" fill="#FCFDFE"/>
<path d="M173.106 53.591C173.106 48.4001 171.126 46.6013 167.601 46.6013C162.386 46.6013 160.02 51.0213 160.02 59.8612V69.6777H156.205V53.591C156.205 48.4001 154.225 46.6013 150.651 46.6013C145.484 46.6013 143.118 51.0213 143.118 59.8612V69.6777H139.255V43.9802H143.118V50.1476C144.567 45.779 147.271 43.1579 151.858 43.1579C156.543 43.1579 159.15 45.5734 159.826 50.3018C161.227 45.8304 164.028 43.1579 168.808 43.1579C174.313 43.1579 176.969 46.5499 176.969 53.1285V69.6777H173.106V53.591Z" fill="#FCFDFE"/>
<path d="M181.655 69.6777V43.9802H185.519V69.6777H181.655ZM181.076 39.7658V35.5H186.05V39.7658H181.076Z" fill="#FCFDFE"/>
<path d="M197.106 70.3458C192.471 70.3458 189.139 67.7761 189.139 62.8935C189.139 58.7305 191.215 56.1094 196.479 55.1843L202.612 54.105C205.123 53.6424 206.185 52.9229 206.185 50.9699C206.185 48.3488 204.978 46.3443 200.245 46.3443C195.561 46.3443 193.774 48.7085 193.533 52.0492H189.67C189.815 46.6013 193.485 43.1065 200.149 43.1065C206.765 43.1065 209.71 46.3443 209.71 50.9699V63.3047C209.71 65.1549 209.807 67.1593 210 69.6777H206.523C206.282 67.4677 206.185 65.5661 206.185 63.6645C205.268 66.7482 202.708 70.3458 197.106 70.3458ZM193.05 62.7394C193.05 65.6689 195.03 67.1079 197.831 67.1079C203.577 67.1079 206.185 62.3796 206.185 57.4971V55.2871C204.978 56.2122 203.674 56.6234 201.839 57.0345L197.831 57.9082C194.547 58.6278 193.05 59.964 193.05 62.7394Z" fill="#FCFDFE"/>
<path fill-rule="evenodd" clip-rule="evenodd" d="M0 76H19V95H57V76H76V57H57V19H76V0H57V19H38V0H19V19H5H0V76ZM19 19V76H57V57H38V19H19Z" fill="url(#paint0_linear_503_6359)"/>
<defs>
<linearGradient id="paint0_linear_503_6359" x1="0" y1="0" x2="92.6829" y2="74.1463" gradientUnits="userSpaceOnUse">
<stop stop-color="#C500CA"/>
<stop offset="1" stop-color="#6B006D"/>
</linearGradient>
</defs>
</svg>
