<svg width="293" height="200" viewBox="0 0 293 200" fill="none" xmlns="http://www.w3.org/2000/svg">
<g clip-path="url(#clip0_114_4)">
<rect width="293" height="200" rx="29" fill="url(#paint0_linear_114_4)"/>
<path d="M61.5666 35.7116L33.2274 -1.39302C32.7247 -2.05111 33.194 -3 34.0221 -3H257.713C258.585 -3 259.039 -1.96121 258.447 -1.32091L223.12 36.8655C220.091 40.1389 215.834 42 211.375 42H74.2821C69.2952 42 64.5935 39.6748 61.5666 35.7116Z" fill="url(#paint1_linear_114_4)" stroke="white"/>
<path d="M57.4219 118V83H65.5219L78.3219 104.45V83H85.8219V118H77.7219L64.9219 96.55V118H57.4219ZM108.096 118.65C105.729 118.65 103.504 118.183 101.421 117.25C99.3374 116.3 97.504 114.992 95.9207 113.325C94.3374 111.658 93.0957 109.733 92.1957 107.55C91.2957 105.35 90.8457 103 90.8457 100.5C90.8457 98 91.2957 95.6583 92.1957 93.475C93.0957 91.275 94.3374 89.3417 95.9207 87.675C97.504 86.0083 99.3374 84.7083 101.421 83.775C103.504 82.825 105.729 82.35 108.096 82.35C110.479 82.35 112.712 82.825 114.796 83.775C116.879 84.7083 118.712 86.0083 120.296 87.675C121.879 89.3417 123.112 91.275 123.996 93.475C124.896 95.6583 125.346 98 125.346 100.5C125.346 103 124.896 105.35 123.996 107.55C123.112 109.733 121.879 111.658 120.296 113.325C118.712 114.992 116.879 116.3 114.796 117.25C112.712 118.183 110.479 118.65 108.096 118.65ZM108.096 111.15C109.429 111.15 110.679 110.875 111.846 110.325C113.029 109.758 114.071 108.992 114.971 108.025C115.871 107.042 116.571 105.908 117.071 104.625C117.587 103.342 117.846 101.967 117.846 100.5C117.846 99.0333 117.587 97.6583 117.071 96.375C116.571 95.0917 115.871 93.9667 114.971 93C114.071 92.0167 113.029 91.25 111.846 90.7C110.679 90.1333 109.429 89.85 108.096 89.85C106.762 89.85 105.504 90.1333 104.321 90.7C103.154 91.25 102.121 92.0167 101.221 93C100.321 93.9667 99.6124 95.0917 99.0957 96.375C98.5957 97.6583 98.3457 99.0333 98.3457 100.5C98.3457 101.967 98.5957 103.342 99.0957 104.625C99.6124 105.908 100.321 107.042 101.221 108.025C102.121 108.992 103.154 109.758 104.321 110.325C105.504 110.875 106.762 111.15 108.096 111.15ZM130.322 99.25H146.322V106.75H130.322V99.25ZM152.344 118V83H160.444L173.244 104.45V83H180.744V118H172.644L159.844 96.55V118H152.344ZM186.768 118V83H207.568V90.5H194.268V95.5H205.168V103H194.268V118H186.768ZM237.584 83V90.5H227.584V118H220.084V90.5H210.084V83H237.584Z" fill="url(#paint2_radial_114_4)"/>
</g>
<defs>
<linearGradient id="paint0_linear_114_4" x1="7" y1="8.00001" x2="283.5" y2="195" gradientUnits="userSpaceOnUse">
<stop stop-color="#92F2EB"/>
<stop offset="0.385745" stop-color="#A59EF3"/>
<stop offset="0.607214" stop-color="#E0D5F6"/>
<stop offset="1" stop-color="#CCAFF6"/>
</linearGradient>
<linearGradient id="paint1_linear_114_4" x1="145.56" y1="42" x2="145.56" y2="-3" gradientUnits="userSpaceOnUse">
<stop stop-color="white"/>
<stop offset="1" stop-color="white" stop-opacity="0"/>
</linearGradient>
<radialGradient id="paint2_radial_114_4" cx="0" cy="0" r="1" gradientUnits="userSpaceOnUse" gradientTransform="translate(147.564 92.381) rotate(90) scale(54.7619 169.762)">
<stop stop-color="#FC14D5"/>
<stop offset="1" stop-color="#8F0A7C"/>
</radialGradient>
<clipPath id="clip0_114_4">
<rect width="293" height="200" rx="29" fill="white"/>
</clipPath>
</defs>
</svg>
