<svg width="24" height="24" viewBox="0 0 24 24" fill="none" xmlns="http://www.w3.org/2000/svg">
<path d="M6.48242 21.0127H17.4512C18.9453 21.0127 19.6924 20.5088 19.6924 19.501C19.6924 18.9033 19.5107 18.2764 19.1475 17.6201C18.79 16.9639 18.2744 16.3516 17.6006 15.7832C16.9268 15.2148 16.1123 14.7549 15.1572 14.4033C14.208 14.0459 13.1475 13.8672 11.9756 13.8672C10.792 13.8672 9.72559 14.0459 8.77637 14.4033C7.82715 14.7549 7.0127 15.2148 6.33301 15.7832C5.65918 16.3516 5.14062 16.9639 4.77734 17.6201C4.41992 18.2764 4.24121 18.9033 4.24121 19.501C4.24121 20.5088 4.98828 21.0127 6.48242 21.0127ZM6.20117 19.4922C6.0957 19.4922 6.01953 19.4746 5.97266 19.4395C5.93164 19.4043 5.91113 19.3457 5.91113 19.2637C5.91113 18.9297 6.04297 18.543 6.30664 18.1035C6.57617 17.6641 6.96875 17.2393 7.48438 16.8291C8 16.4131 8.63281 16.0703 9.38281 15.8008C10.1387 15.5254 11.0029 15.3877 11.9756 15.3877C12.9424 15.3877 13.8008 15.5254 14.5508 15.8008C15.3008 16.0703 15.9336 16.4131 16.4492 16.8291C16.9707 17.2393 17.3633 17.6641 17.627 18.1035C17.8906 18.543 18.0225 18.9297 18.0225 19.2637C18.0225 19.3457 17.999 19.4043 17.9521 19.4395C17.9111 19.4746 17.8408 19.4922 17.7412 19.4922H6.20117ZM11.9756 12.8477C12.6846 12.8477 13.3291 12.6602 13.9092 12.2852C14.4893 11.9043 14.9521 11.3975 15.2979 10.7646C15.6436 10.1318 15.8164 9.43164 15.8164 8.66406C15.8164 7.9082 15.6436 7.22266 15.2979 6.60742C14.958 5.99219 14.4951 5.50293 13.9092 5.13965C13.3291 4.77637 12.6846 4.59473 11.9756 4.59473C11.2666 4.59473 10.6191 4.7793 10.0332 5.14844C9.45312 5.51758 8.99023 6.0127 8.64453 6.63379C8.29883 7.24902 8.12598 7.93164 8.12598 8.68164C8.12598 9.44336 8.29883 10.1406 8.64453 10.7734C8.99023 11.4004 9.45312 11.9043 10.0332 12.2852C10.6191 12.6602 11.2666 12.8477 11.9756 12.8477ZM11.9756 11.3184C11.5713 11.3184 11.1963 11.2041 10.8506 10.9756C10.5107 10.7412 10.2383 10.4248 10.0332 10.0264C9.82812 9.62793 9.72559 9.17969 9.72559 8.68164C9.71973 8.19531 9.81934 7.75879 10.0244 7.37207C10.2354 6.98535 10.5107 6.68066 10.8506 6.45801C11.1904 6.22949 11.5654 6.11523 11.9756 6.11523C12.3857 6.11523 12.7607 6.22656 13.1006 6.44922C13.4404 6.67187 13.7129 6.97656 13.918 7.36328C14.123 7.74414 14.2256 8.17773 14.2256 8.66406C14.2256 9.16211 14.123 9.61328 13.918 10.0176C13.7129 10.416 13.4404 10.7324 13.1006 10.9668C12.7607 11.2012 12.3857 11.3184 11.9756 11.3184Z" fill="white"/>
</svg>
