<svg width="24" height="24" viewBox="0 0 24 24" fill="none" xmlns="http://www.w3.org/2000/svg">
<path d="M9.30887 15.4307H15.5969L15.6079 17.1694L15.6189 18.9082L18.2988 16.3104L20.9786 13.7126H11.9997H3.02085V14.5716V15.4307H9.30887ZM12 10.1945H21V9.33539V8.47631H14.7115H8.42304V6.73771C8.42304 5.78148 8.40873 4.99911 8.39126 4.99911C8.37378 4.99911 7.15361 6.16807 5.67974 7.59679L3 10.1945H12Z" fill="black"/>
<path d="M9.30887 15.4307H15.5969L15.6079 17.1694L15.6189 18.9082L18.2988 16.3104L20.9786 13.7126H11.9997H3.02085V14.5716V15.4307H9.30887ZM12 10.1945H21V9.33539V8.47631H14.7115H8.42304V6.73771C8.42304 5.78148 8.40873 4.99911 8.39126 4.99911C8.37378 4.99911 7.15361 6.16807 5.67974 7.59679L3 10.1945H12Z" stroke="black"/>
</svg>
