<svg width="24" height="24" viewBox="0 0 24 24" fill="none" xmlns="http://www.w3.org/2000/svg">
<path d="M11.5381 21.6191C12.7627 21.6191 13.9141 21.3848 14.9922 20.916C16.0762 20.4473 17.0312 19.7998 17.8574 18.9736C18.6836 18.1475 19.3311 17.1953 19.7998 16.1172C20.2686 15.0332 20.5029 13.8789 20.5029 12.6543C20.5029 11.4297 20.2686 10.2783 19.7998 9.2002C19.3311 8.11621 18.6836 7.16113 17.8574 6.33496C17.0312 5.50879 16.0762 4.86133 14.9922 4.39258C13.9082 3.92383 12.7539 3.68945 11.5293 3.68945C10.3047 3.68945 9.15039 3.92383 8.06641 4.39258C6.98828 4.86133 6.03613 5.50879 5.20996 6.33496C4.38965 7.16113 3.74512 8.11621 3.27637 9.2002C2.80762 10.2783 2.57324 11.4297 2.57324 12.6543C2.57324 13.8789 2.80762 15.0332 3.27637 16.1172C3.74512 17.1953 4.39258 18.1475 5.21875 18.9736C6.04492 19.7998 6.99707 20.4473 8.0752 20.916C9.15918 21.3848 10.3135 21.6191 11.5381 21.6191ZM11.5381 20.125C10.501 20.125 9.53125 19.9316 8.62891 19.5449C7.72656 19.1582 6.93262 18.625 6.24707 17.9453C5.56738 17.2598 5.03418 16.4658 4.64746 15.5635C4.2666 14.6611 4.07617 13.6914 4.07617 12.6543C4.07617 11.6172 4.2666 10.6475 4.64746 9.74512C5.03418 8.84277 5.56738 8.04883 6.24707 7.36328C6.92676 6.67773 7.71777 6.14453 8.62012 5.76367C9.52246 5.37695 10.4922 5.18359 11.5293 5.18359C12.5664 5.18359 13.5361 5.37695 14.4385 5.76367C15.3467 6.14453 16.1406 6.67773 16.8203 7.36328C17.5059 8.04883 18.042 8.84277 18.4287 9.74512C18.8154 10.6475 19.0088 11.6172 19.0088 12.6543C19.0088 13.6914 18.8154 14.6611 18.4287 15.5635C18.0479 16.4658 17.5146 17.2598 16.8291 17.9453C16.1436 18.625 15.3496 19.1582 14.4473 19.5449C13.5449 19.9316 12.5752 20.125 11.5381 20.125ZM11.5293 17.6729C11.6465 17.6729 11.7432 17.6348 11.8193 17.5586C11.9014 17.4824 11.9424 17.3828 11.9424 17.2598V16.6445C12.6279 16.5742 13.2021 16.3486 13.665 15.9678C14.1338 15.5811 14.3682 15.0566 14.3682 14.3945C14.3682 13.7969 14.1748 13.3164 13.7881 12.9531C13.4014 12.5898 12.8271 12.3408 12.0654 12.2061L11.9424 12.1797V9.72754C12.2588 9.78613 12.5225 9.90918 12.7334 10.0967C12.9502 10.2783 13.1025 10.5156 13.1904 10.8086C13.29 11.0957 13.4688 11.2393 13.7266 11.2393C13.8789 11.2393 14.002 11.1924 14.0957 11.0986C14.1953 10.999 14.2451 10.873 14.2451 10.7207C14.2451 10.6738 14.2393 10.6299 14.2275 10.5889C14.2217 10.542 14.2129 10.4951 14.2012 10.4482C14.084 9.97363 13.8174 9.58398 13.4014 9.2793C12.9912 8.96875 12.5049 8.78125 11.9424 8.7168V8.11035C11.9424 7.9873 11.9014 7.8877 11.8193 7.81152C11.7432 7.73535 11.6465 7.69727 11.5293 7.69727C11.2539 7.69727 11.1162 7.83496 11.1162 8.11035V8.7168C10.4482 8.79297 9.90039 9.02734 9.47266 9.41992C9.04492 9.80664 8.83105 10.2988 8.83105 10.8965C8.83105 11.4531 9.01855 11.9043 9.39355 12.25C9.76855 12.5957 10.3223 12.8535 11.0547 13.0234L11.1162 13.041V15.6426C10.7178 15.584 10.4014 15.4521 10.167 15.2471C9.93848 15.042 9.78906 14.793 9.71875 14.5C9.66602 14.3535 9.59277 14.2451 9.49902 14.1748C9.41113 14.0986 9.30273 14.0605 9.17383 14.0605C9.02734 14.0605 8.9043 14.1104 8.80469 14.21C8.71094 14.3037 8.66406 14.4268 8.66406 14.5791C8.66406 14.626 8.66699 14.6729 8.67285 14.7197C8.68457 14.7607 8.69629 14.8047 8.70801 14.8516C8.83105 15.3613 9.11523 15.7715 9.56055 16.082C10.0059 16.3867 10.5244 16.5684 11.1162 16.627V17.2598C11.1162 17.3828 11.1543 17.4824 11.2305 17.5586C11.3125 17.6348 11.4121 17.6729 11.5293 17.6729ZM11.1162 11.96L11.0547 11.9424C10.6621 11.8252 10.3721 11.6787 10.1846 11.5029C10.0029 11.3213 9.91211 11.1016 9.91211 10.8438C9.91211 10.5742 10.0176 10.3369 10.2285 10.1318C10.4453 9.92676 10.7412 9.79199 11.1162 9.72754V11.96ZM11.9424 13.252L12.1357 13.2959C12.5576 13.4131 12.8535 13.5654 13.0234 13.7529C13.1934 13.9404 13.2783 14.1748 13.2783 14.4561C13.2783 14.7666 13.167 15.0303 12.9443 15.2471C12.7275 15.458 12.3936 15.5898 11.9424 15.6426V13.252Z" fill="#c3c3c3"/>
<path d="M14.9922 20.916L14.8731 20.6407L14.8726 20.6409L14.9922 20.916ZM19.7998 16.1172L20.0749 16.2368L20.0752 16.2363L19.7998 16.1172ZM19.7998 9.2002L19.5244 9.31927L19.5247 9.31981L19.7998 9.2002ZM8.06641 4.39258L7.94733 4.11722L7.94679 4.11746L8.06641 4.39258ZM5.20996 6.33496L4.99783 6.12283L4.99708 6.12359L5.20996 6.33496ZM3.27637 9.2002L3.55149 9.31981L3.55172 9.31927L3.27637 9.2002ZM3.27637 16.1172L3.00101 16.2363L3.00125 16.2368L3.27637 16.1172ZM8.0752 20.916L7.95558 21.1911L7.95612 21.1914L8.0752 20.916ZM6.24707 17.9453L6.03402 18.1565L6.03585 18.1584L6.24707 17.9453ZM4.64746 15.5635L4.37107 15.6801L4.37172 15.6817L4.64746 15.5635ZM4.64746 9.74512L4.37171 9.62694L4.37107 9.62846L4.64746 9.74512ZM8.62012 5.76367L8.73678 6.04007L8.73829 6.03942L8.62012 5.76367ZM14.4385 5.76367L14.3203 6.03942L14.3225 6.04033L14.4385 5.76367ZM16.8203 7.36328L16.6073 7.5745L16.6082 7.57541L16.8203 7.36328ZM18.4287 15.5635L18.153 15.4453L18.1523 15.4468L18.4287 15.5635ZM16.8291 17.9453L17.0403 18.1584L17.0412 18.1574L16.8291 17.9453ZM11.8193 17.5586L11.6151 17.3386L11.6072 17.3465L11.8193 17.5586ZM11.9424 16.6445L11.9118 16.3461L11.6424 16.3737V16.6445H11.9424ZM13.665 15.9678L13.8556 16.1994L13.856 16.1992L13.665 15.9678ZM12.0654 12.2061L12.0025 12.4996L12.0132 12.5015L12.0654 12.2061ZM11.9424 12.1797H11.6424V12.4222L11.8795 12.473L11.9424 12.1797ZM11.9424 9.72754L11.997 9.43255L11.6424 9.36688V9.72754H11.9424ZM12.7334 10.0967L12.534 10.321L12.5407 10.3266L12.7334 10.0967ZM13.1904 10.8086L12.9028 10.8949L12.907 10.9069L13.1904 10.8086ZM14.2275 10.5889L13.9299 10.6261L13.9327 10.649L13.9391 10.6713L14.2275 10.5889ZM14.2012 10.4482L13.9099 10.5202L13.9101 10.521L14.2012 10.4482ZM13.4014 9.2793L13.2203 9.5185L13.2241 9.52133L13.4014 9.2793ZM11.9424 8.7168H11.6424V8.98438L11.9082 9.01485L11.9424 8.7168ZM11.8193 7.81152L11.6071 8.0238L11.6152 8.03136L11.8193 7.81152ZM11.1162 8.7168L11.1502 9.01487L11.4162 8.98453V8.7168H11.1162ZM9.47266 9.41992L9.67386 9.64246L9.67551 9.64094L9.47266 9.41992ZM11.0547 13.0234L11.1371 12.735L11.1298 12.7329L11.1225 12.7312L11.0547 13.0234ZM11.1162 13.041H11.4162V12.8147L11.1986 12.7526L11.1162 13.041ZM11.1162 15.6426L11.0726 15.9394L11.4162 15.9899V15.6426H11.1162ZM10.167 15.2471L9.9666 15.4704L9.96944 15.4728L10.167 15.2471ZM9.71875 14.5L10.0105 14.43L10.0066 14.4139L10.001 14.3984L9.71875 14.5ZM9.49902 14.1748L9.30254 14.4015L9.31055 14.4084L9.31902 14.4148L9.49902 14.1748ZM8.67285 14.7197L8.37517 14.7569L8.37804 14.7799L8.38439 14.8021L8.67285 14.7197ZM8.70801 14.8516L8.99964 14.7812L8.99905 14.7788L8.70801 14.8516ZM9.56055 16.082L9.38894 16.3281L9.39114 16.3296L9.56055 16.082ZM11.1162 16.627H11.4162V16.3552L11.1458 16.3284L11.1162 16.627ZM11.2305 17.5586L11.0182 17.7709L11.0263 17.7784L11.2305 17.5586ZM11.1162 11.96L11.0338 12.2484L11.4162 12.3577V11.96H11.1162ZM11.0547 11.9424L10.9689 12.2299L10.9723 12.2308L11.0547 11.9424ZM10.1846 11.5029L9.97233 11.7152L9.97939 11.7218L10.1846 11.5029ZM10.2285 10.1318L10.0223 9.91387L10.0194 9.91674L10.2285 10.1318ZM11.1162 9.72754H11.4162V9.37158L11.0654 9.43187L11.1162 9.72754ZM11.9424 13.252L12.0089 12.9594L11.6424 12.8761V13.252H11.9424ZM12.1357 13.2959L12.216 13.0068L12.2092 13.0049L12.2022 13.0034L12.1357 13.2959ZM12.9443 15.2471L13.1535 15.4621L13.1536 15.462L12.9443 15.2471ZM11.9424 15.6426H11.6424V15.9797L11.9772 15.9405L11.9424 15.6426ZM11.5381 21.9191C12.8021 21.9191 13.9944 21.677 15.1118 21.1911L14.8726 20.6409C13.8338 21.0925 12.7233 21.3191 11.5381 21.3191V21.9191ZM15.1113 21.1914C16.2296 20.7078 17.2163 20.039 18.0696 19.1858L17.6453 18.7615C16.8462 19.5606 15.9228 20.1868 14.8731 20.6407L15.1113 21.1914ZM18.0696 19.1858C18.9225 18.3328 19.5913 17.3492 20.0749 16.2368L19.5247 15.9976C19.0708 17.0414 18.4447 17.9621 17.6453 18.7615L18.0696 19.1858ZM20.0752 16.2363C20.5608 15.1133 20.8029 13.9183 20.8029 12.6543H20.2029C20.2029 13.8395 19.9763 14.9531 19.5244 15.9981L20.0752 16.2363ZM20.8029 12.6543C20.8029 11.3903 20.5608 10.198 20.0749 9.08058L19.5247 9.31981C19.9763 10.3586 20.2029 11.4691 20.2029 12.6543H20.8029ZM20.0752 9.08112C19.5916 7.96279 18.9228 6.97605 18.0696 6.12283L17.6453 6.54709C18.4444 7.34622 19.0705 8.26963 19.5244 9.31927L20.0752 9.08112ZM18.0696 6.12283C17.2163 5.26961 16.2296 4.60082 15.1113 4.11722L14.8731 4.66794C15.9228 5.12183 16.8462 5.74797 17.6453 6.54709L18.0696 6.12283ZM15.1113 4.11722C13.9883 3.63161 12.7933 3.38945 11.5293 3.38945V3.98945C12.7145 3.98945 13.8281 4.21604 14.8731 4.66794L15.1113 4.11722ZM11.5293 3.38945C10.2653 3.38945 9.0703 3.63161 7.94733 4.11722L8.18548 4.66794C9.23048 4.21604 10.3441 3.98945 11.5293 3.98945V3.38945ZM7.94679 4.11746C6.83437 4.60112 5.85078 5.26987 4.99783 6.12283L5.42209 6.54709C6.22148 5.7477 7.1422 5.12154 8.18602 4.6677L7.94679 4.11746ZM4.99708 6.12359C4.14997 6.97674 3.48442 7.96324 3.00101 9.08112L3.55172 9.31927C4.00582 8.26918 4.62933 7.34552 5.42285 6.54634L4.99708 6.12359ZM3.00125 9.08058C2.5154 10.198 2.27324 11.3903 2.27324 12.6543H2.87324C2.87324 11.4691 3.09983 10.3586 3.55149 9.31981L3.00125 9.08058ZM2.27324 12.6543C2.27324 13.9183 2.5154 15.1133 3.00101 16.2363L3.55172 15.9981C3.09983 14.9531 2.87324 13.8395 2.87324 12.6543H2.27324ZM3.00125 16.2368C3.48491 17.3492 4.15366 18.3328 5.00662 19.1858L5.43088 18.7615C4.63149 17.9621 4.00533 17.0414 3.55149 15.9976L3.00125 16.2368ZM5.00662 19.1858C5.85957 20.0387 6.84316 20.7075 7.95558 21.1911L8.19481 20.6409C7.15099 20.1871 6.23027 19.5609 5.43088 18.7615L5.00662 19.1858ZM7.95612 21.1914C9.07909 21.677 10.2741 21.9191 11.5381 21.9191V21.3191C10.3529 21.3191 9.23927 21.0925 8.19427 20.6407L7.95612 21.1914ZM11.5381 19.825C10.5393 19.825 9.61 19.639 8.74708 19.2692L8.51073 19.8207C9.4525 20.2243 10.4627 20.425 11.5381 20.425V19.825ZM8.74708 19.2692C7.87882 18.8971 7.11658 18.3849 6.45829 17.7323L6.03585 18.1584C6.74865 18.8651 7.57431 19.4193 8.51073 19.8207L8.74708 19.2692ZM6.46011 17.7341C5.80745 17.0758 5.29532 16.3136 4.9232 15.4453L4.37172 15.6817C4.77304 16.6181 5.32732 17.4437 6.03403 18.1565L6.46011 17.7341ZM4.92385 15.4468C4.55948 14.5835 4.37617 13.6537 4.37617 12.6543H3.77617C3.77617 13.7291 3.97372 14.7387 4.37107 15.6801L4.92385 15.4468ZM4.37617 12.6543C4.37617 11.6549 4.55948 10.7251 4.92385 9.86177L4.37107 9.62846C3.97372 10.5699 3.77617 11.5795 3.77617 12.6543H4.37617ZM4.9232 9.86329C5.29532 8.99503 5.80745 8.23279 6.46011 7.5745L6.03403 7.15206C5.32732 7.86486 4.77304 8.69052 4.37172 9.62694L4.9232 9.86329ZM6.46011 7.5745C7.11182 6.91717 7.86997 6.40592 8.73677 6.04006L8.50346 5.48728C7.56558 5.88314 6.74169 6.4383 6.03403 7.15206L6.46011 7.5745ZM8.73829 6.03942C9.60121 5.66959 10.5305 5.48359 11.5293 5.48359V4.88359C10.4539 4.88359 9.44371 5.08431 8.50194 5.48793L8.73829 6.03942ZM11.5293 5.48359C12.5281 5.48359 13.4574 5.66959 14.3203 6.03942L14.5567 5.48793C13.6149 5.08431 12.6047 4.88359 11.5293 4.88359V5.48359ZM14.3225 6.04033C15.1951 6.40627 15.9559 6.9175 16.6073 7.5745L17.0334 7.15206C16.3254 6.43797 15.4983 5.88279 14.5545 5.48701L14.3225 6.04033ZM16.6082 7.57541C17.2664 8.23363 17.7811 8.99558 18.153 9.86329L18.7045 9.62694C18.3029 8.68997 17.7453 7.86403 17.0324 7.15115L16.6082 7.57541ZM18.153 9.86329C18.5228 10.7262 18.7088 11.6555 18.7088 12.6543H19.3088C19.3088 11.5789 19.1081 10.5687 18.7045 9.62694L18.153 9.86329ZM18.7088 12.6543C18.7088 13.6531 18.5228 14.5824 18.153 15.4453L18.7045 15.6817C19.1081 14.7399 19.3088 13.7297 19.3088 12.6543H18.7088ZM18.1523 15.4468C17.7864 16.3139 17.2749 17.0753 16.617 17.7332L17.0412 18.1574C17.7544 17.4442 18.3093 16.6178 18.7051 15.6801L18.1523 15.4468ZM16.6179 17.7323C15.9596 18.3849 15.1974 18.8971 14.3291 19.2692L14.5654 19.8207C15.5019 19.4193 16.3275 18.8651 17.0403 18.1584L16.6179 17.7323ZM14.3291 19.2692C13.4662 19.639 12.5369 19.825 11.5381 19.825V20.425C12.6135 20.425 13.6237 20.2243 14.5654 19.8207L14.3291 19.2692ZM11.5293 17.9729C11.7183 17.9729 11.8938 17.9084 12.0315 17.7707L11.6072 17.3465C11.5925 17.3611 11.5746 17.3729 11.5293 17.3729V17.9729ZM12.0235 17.7784C12.1731 17.6395 12.2424 17.457 12.2424 17.2598H11.6424C11.6424 17.3086 11.6297 17.3253 11.6152 17.3388L12.0235 17.7784ZM12.2424 17.2598V16.6445H11.6424V17.2598H12.2424ZM11.973 16.943C12.7082 16.8676 13.3406 16.6232 13.8556 16.1994L13.4744 15.7361C13.0637 16.0741 12.5476 16.2809 11.9118 16.3461L11.973 16.943ZM13.856 16.1992C14.4005 15.7499 14.6682 15.1371 14.6682 14.3945H14.0682C14.0682 14.9762 13.8671 15.4122 13.4741 15.7364L13.856 16.1992ZM14.6682 14.3945C14.6682 13.7256 14.4485 13.1619 13.9935 12.7345L13.5827 13.1718C13.9011 13.4709 14.0682 13.8682 14.0682 14.3945H14.6682ZM13.9935 12.7345C13.549 12.3169 12.9119 12.0512 12.1177 11.9106L12.0132 12.5015C12.7424 12.6305 13.2538 12.8628 13.5827 13.1718L13.9935 12.7345ZM12.1283 11.9127L12.0052 11.8863L11.8795 12.473L12.0026 12.4994L12.1283 11.9127ZM12.2424 12.1797V9.72754H11.6424V12.1797H12.2424ZM11.8878 10.0225C12.1581 10.0726 12.3695 10.1746 12.5341 10.3209L12.9327 9.87246C12.6754 9.64375 12.3595 9.49968 11.997 9.43255L11.8878 10.0225ZM12.5407 10.3266C12.7089 10.4676 12.8306 10.6532 12.9031 10.8948L13.4778 10.7224C13.3745 10.3781 13.1915 10.0891 12.9261 9.86672L12.5407 10.3266ZM12.907 10.9069C12.9694 11.0868 13.0658 11.2486 13.2113 11.3655C13.3605 11.4854 13.5383 11.5393 13.7266 11.5393V10.9393C13.657 10.9393 13.6165 10.9214 13.587 10.8977C13.5538 10.871 13.5111 10.8175 13.4739 10.7103L12.907 10.9069ZM13.7266 11.5393C13.9456 11.5393 14.1493 11.4693 14.3078 11.3108L13.8836 10.8865C13.8546 10.9155 13.8122 10.9393 13.7266 10.9393V11.5393ZM14.3078 11.3108C14.4686 11.15 14.5451 10.9455 14.5451 10.7207H13.9451C13.9451 10.8006 13.9221 10.848 13.8836 10.8865L14.3078 11.3108ZM14.5451 10.7207C14.5451 10.6487 14.5361 10.5768 14.516 10.5065L13.9391 10.6713C13.9424 10.683 13.9451 10.699 13.9451 10.7207H14.5451ZM14.5252 10.5517C14.5178 10.4925 14.5068 10.4338 14.4922 10.3755L13.9101 10.521C13.919 10.5564 13.9255 10.5914 13.9299 10.6261L14.5252 10.5517ZM14.4924 10.3763C14.3574 9.82945 14.048 9.38107 13.5786 9.03727L13.2241 9.52133C13.5867 9.7869 13.8106 10.1178 13.9099 10.5202L14.4924 10.3763ZM13.5825 9.04012C13.1253 8.69395 12.5869 8.48868 11.9765 8.41875L11.9082 9.01485C12.4229 9.07382 12.8572 9.24355 13.2203 9.51847L13.5825 9.04012ZM12.2424 8.7168V8.11035H11.6424V8.7168H12.2424ZM12.2424 8.11035C12.2424 7.91309 12.1731 7.73059 12.0235 7.59169L11.6152 8.03136C11.6297 8.0448 11.6424 8.06152 11.6424 8.11035H12.2424ZM12.0315 7.59939C11.8938 7.46174 11.7183 7.39727 11.5293 7.39727V7.99727C11.5746 7.99727 11.5925 8.00897 11.6072 8.02366L12.0315 7.59939ZM11.5293 7.39727C11.3454 7.39727 11.1523 7.44345 11.0074 7.58841C10.8624 7.73336 10.8162 7.92641 10.8162 8.11035H11.4162C11.4162 8.0189 11.4389 8.00541 11.4316 8.01267C11.4244 8.01993 11.4378 7.99727 11.5293 7.99727V7.39727ZM10.8162 8.11035V8.7168H11.4162V8.11035H10.8162ZM11.0822 8.41873C10.3615 8.50091 9.75137 8.75691 9.2698 9.1989L9.67551 9.64094C10.0494 9.29778 10.5349 9.08503 11.1502 9.01487L11.0822 8.41873ZM9.27146 9.19739C8.77826 9.6433 8.53105 10.2175 8.53105 10.8965H9.13105C9.13105 10.3801 9.31158 9.96998 9.67385 9.64245L9.27146 9.19739ZM8.53105 10.8965C8.53105 11.5284 8.74759 12.0625 9.19021 12.4706L9.5969 12.0294C9.28952 11.7461 9.13105 11.3779 9.13105 10.8965H8.53105ZM9.19021 12.4706C9.61734 12.8643 10.2262 13.1392 10.9869 13.3157L11.1225 12.7312C10.4183 12.5678 9.91977 12.3271 9.5969 12.0294L9.19021 12.4706ZM10.9723 13.3119L11.0338 13.3295L11.1986 12.7526L11.1371 12.735L10.9723 13.3119ZM10.8162 13.041V15.6426H11.4162V13.041H10.8162ZM11.1599 15.3458C10.802 15.2931 10.5445 15.1787 10.3645 15.0213L9.96944 15.4728C10.2583 15.7256 10.6336 15.8748 11.0726 15.9394L11.1599 15.3458ZM10.3674 15.0238C10.1832 14.8585 10.0663 14.6626 10.0105 14.43L9.42703 14.57C9.51183 14.9233 9.69374 15.2255 9.96662 15.4703L10.3674 15.0238ZM10.001 14.3984C9.93483 14.2145 9.83275 14.0501 9.67902 13.9348L9.31902 14.4148C9.3528 14.4401 9.39721 14.4925 9.43648 14.6016L10.001 14.3984ZM9.6955 13.9481C9.54704 13.8194 9.36652 13.7605 9.17383 13.7605V14.3605C9.23895 14.3605 9.27522 14.3778 9.30254 14.4015L9.6955 13.9481ZM9.17383 13.7605C8.95132 13.7605 8.75088 13.8395 8.59256 13.9978L9.01682 14.4221C9.05771 14.3812 9.10337 14.3605 9.17383 14.3605V13.7605ZM8.59256 13.9978C8.43406 14.1563 8.36406 14.3601 8.36406 14.5791H8.96406C8.96406 14.4935 8.98782 14.4511 9.01682 14.4221L8.59256 13.9978ZM8.36406 14.5791C8.36406 14.6385 8.36778 14.6978 8.37517 14.7569L8.97053 14.6825C8.96621 14.6479 8.96406 14.6134 8.96406 14.5791H8.36406ZM8.38439 14.8021C8.39509 14.8396 8.40595 14.8803 8.41697 14.9243L8.99905 14.7788C8.98663 14.7291 8.97405 14.6819 8.96131 14.6373L8.38439 14.8021ZM8.41638 14.922C8.55728 15.5057 8.88583 15.9772 9.38894 16.3281L9.73215 15.836C9.34464 15.5657 9.10483 15.217 8.99963 14.7812L8.41638 14.922ZM9.39114 16.3296C9.88219 16.6656 10.4499 16.8625 11.0867 16.9255L11.1458 16.3284C10.5989 16.2743 10.1295 16.1078 9.72995 15.8344L9.39114 16.3296ZM10.8162 16.627V17.2598H11.4162V16.627H10.8162ZM10.8162 17.2598C10.8162 17.4501 10.8778 17.6302 11.0183 17.7707L11.4426 17.3465C11.4308 17.3347 11.4162 17.3155 11.4162 17.2598H10.8162ZM11.0263 17.7784C11.1667 17.9087 11.3403 17.9729 11.5293 17.9729V17.3729C11.4839 17.3729 11.4583 17.3608 11.4346 17.3388L11.0263 17.7784ZM11.1986 11.6715L11.1371 11.6539L10.9723 12.2308L11.0338 12.2484L11.1986 11.6715ZM11.1405 11.6549C10.7688 11.544 10.529 11.4146 10.3898 11.2841L9.97939 11.7218C10.2151 11.9428 10.5554 12.1064 10.9689 12.2298L11.1405 11.6549ZM10.3967 11.2908C10.2716 11.1656 10.2121 11.0223 10.2121 10.8438H9.61211C9.61211 11.1808 9.73431 11.4769 9.97244 11.7151L10.3967 11.2908ZM10.2121 10.8438C10.2121 10.6631 10.2789 10.5012 10.4376 10.3469L10.0194 9.91674C9.75624 10.1726 9.61211 10.4853 9.61211 10.8438H10.2121ZM10.4347 10.3498C10.5981 10.1952 10.8344 10.0804 11.167 10.0232L11.0654 9.43187C10.648 9.50361 10.2926 9.6583 10.0224 9.9139L10.4347 10.3498ZM10.8162 9.72754V11.96H11.4162V9.72754H10.8162ZM11.8759 13.5445L12.0693 13.5884L12.2022 13.0034L12.0089 12.9594L11.8759 13.5445ZM12.0554 13.585C12.4578 13.6967 12.688 13.8296 12.8011 13.9544L13.2457 13.5515C13.019 13.3013 12.6575 13.1295 12.216 13.0068L12.0554 13.585ZM12.8011 13.9544C12.9153 14.0804 12.9783 14.2403 12.9783 14.4561H13.5783C13.5783 14.1093 13.4714 13.8005 13.2457 13.5515L12.8011 13.9544ZM12.9783 14.4561C12.9783 14.6856 12.8998 14.8718 12.7351 15.0321L13.1536 15.462C13.4342 15.1888 13.5783 14.8476 13.5783 14.4561H12.9783ZM12.7351 15.0321C12.5843 15.1788 12.3244 15.2959 11.9076 15.3446L11.9772 15.9405C12.4627 15.8838 12.8708 15.7372 13.1535 15.4621L12.7351 15.0321ZM12.2424 15.6426V13.252H11.6424V15.6426H12.2424Z" fill="#c3c3c3"/>
</svg>
