<svg width="16" height="17" viewBox="0 0 16 17" fill="none" xmlns="http://www.w3.org/2000/svg">
<g clip-path="url(#clip0_33_626)">
<path d="M8.66671 13.8334C9.55044 13.8323 10.3977 13.4808 11.0226 12.8559C11.6475 12.231 11.999 11.3838 12 10.5001V4.66207C12.0011 4.31165 11.9325 3.9645 11.7984 3.64075C11.6643 3.31701 11.4673 3.0231 11.2187 2.77607L9.72404 1.28141C9.47701 1.03286 9.18311 0.835808 8.85936 0.701686C8.53561 0.567564 8.18847 0.499036 7.83804 0.500073H4.66671C3.78298 0.501131 2.93575 0.852661 2.31085 1.47755C1.68596 2.10244 1.33443 2.94968 1.33337 3.83341V10.5001C1.33443 11.3838 1.68596 12.231 2.31085 12.8559C2.93575 13.4808 3.78298 13.8323 4.66671 13.8334H8.66671ZM2.66671 10.5001V3.83341C2.66671 3.30297 2.87742 2.79427 3.25249 2.41919C3.62757 2.04412 4.13627 1.83341 4.66671 1.83341C4.66671 1.83341 7.94604 1.84274 8.00004 1.84941V3.16674C8.00004 3.52036 8.14052 3.8595 8.39056 4.10955C8.64061 4.3596 8.97975 4.50007 9.33337 4.50007H10.6507C10.6574 4.55407 10.6667 10.5001 10.6667 10.5001C10.6667 11.0305 10.456 11.5392 10.0809 11.9143C9.70585 12.2894 9.19714 12.5001 8.66671 12.5001H4.66671C4.13627 12.5001 3.62757 12.2894 3.25249 11.9143C2.87742 11.5392 2.66671 11.0305 2.66671 10.5001ZM14.6667 5.83341V13.1667C14.6656 14.0505 14.3141 14.8977 13.6892 15.5226C13.0643 16.1475 12.2171 16.499 11.3334 16.5001H5.33337C5.15656 16.5001 4.98699 16.4298 4.86197 16.3048C4.73695 16.1798 4.66671 16.0102 4.66671 15.8334C4.66671 15.6566 4.73695 15.487 4.86197 15.362C4.98699 15.237 5.15656 15.1667 5.33337 15.1667H11.3334C11.8638 15.1667 12.3725 14.956 12.7476 14.581C13.1227 14.2059 13.3334 13.6972 13.3334 13.1667V5.83341C13.3334 5.65659 13.4036 5.48703 13.5286 5.362C13.6537 5.23698 13.8232 5.16674 14 5.16674C14.1769 5.16674 14.3464 5.23698 14.4714 5.362C14.5965 5.48703 14.6667 5.65659 14.6667 5.83341Z" fill="black"/>
</g>
<defs>
<clipPath id="clip0_33_626">
<rect width="16" height="16" fill="white" transform="translate(0 0.5)"/>
</clipPath>
</defs>
</svg>
