<svg width="20" height="20" viewBox="0 0 21 20" fill="none" xmlns="http://www.w3.org/2000/svg">
<g clip-path="url(#clip0_4261_2251)">
<path d="M10.5921 1.25397C10.6397 1.25397 10.6873 1.2671 10.73 1.29173L18.0521 5.55106C18.1375 5.6003 18.19 5.69222 18.1884 5.78906L18.1604 14.2601C18.1604 14.3586 18.1079 14.4489 18.0226 14.4981L10.6726 18.7099C10.6315 18.7345 10.5823 18.746 10.5347 18.746C10.4871 18.746 10.4395 18.7328 10.3968 18.7082L3.07469 14.4489C2.98934 14.3996 2.93681 14.3077 2.93845 14.2109L2.96636 5.73982C2.96636 5.64134 3.01888 5.55106 3.10423 5.50182L10.4543 1.29008C10.4953 1.26546 10.5429 1.25397 10.5921 1.25397ZM10.5954 0.0163867C10.3344 0.0147454 10.0735 0.0820412 9.83874 0.216633L2.48872 4.42673C2.01929 4.69591 1.73041 5.19324 1.72713 5.73489L1.69923 14.206C1.69758 14.746 1.98482 15.2466 2.45097 15.5191L9.77309 19.7784C10.0062 19.9146 10.2671 19.9819 10.5298 19.9836C10.7907 19.9852 11.0517 19.9179 11.2864 19.7833L18.6364 15.5716C19.1059 15.3024 19.3948 14.8051 19.398 14.2634L19.4259 5.79398C19.4276 5.25397 19.1403 4.75336 18.6742 4.48089L11.3521 0.221557C11.1174 0.085324 10.8564 0.0163867 10.5954 0.0163867Z" fill="#1B4ADD"/>
<path d="M12.08 4.63354H11.0066C10.9262 4.63354 10.8539 4.68443 10.826 4.75993L7.37589 14.2207C7.35291 14.2831 7.39887 14.3488 7.46617 14.3488H8.53962C8.62005 14.3488 8.69227 14.2979 8.72017 14.2224L12.172 4.75993C12.1916 4.6992 12.1457 4.63354 12.08 4.63354ZM10.2023 4.63354H9.12887C9.04844 4.63354 8.97622 4.68443 8.94832 4.75993L5.49817 14.2207C5.4752 14.2831 5.52115 14.3488 5.58845 14.3488H6.6619C6.74233 14.3488 6.81455 14.2979 6.84245 14.2224L10.2942 4.75993C10.3156 4.6992 10.2696 4.63354 10.2023 4.63354ZM11.5926 8.30199C11.5614 8.21828 11.4432 8.21828 11.412 8.30199L10.8539 9.83174C10.8392 9.87441 10.8392 9.92037 10.8539 9.96305L12.4083 14.224C12.4362 14.2995 12.5084 14.3504 12.5889 14.3504H13.6623C13.7296 14.3504 13.7756 14.2848 13.7526 14.2224L11.5926 8.30199ZM15.6287 14.2207L12.5314 5.72998C12.5002 5.64627 12.382 5.64627 12.3509 5.72998L11.7928 7.25972C11.778 7.3024 11.778 7.34836 11.7928 7.39103L14.286 14.224C14.3139 14.2995 14.3862 14.3504 14.4666 14.3504H15.54C15.604 14.3488 15.6516 14.2831 15.6287 14.2207Z" fill="#1B4ADD"/>
</g>
<defs>
<clipPath id="clip0_4261_2251">
<rect width="17.7267" height="20" fill="white" transform="translate(1.69922)"/>
</clipPath>
</defs>
</svg>
